<svg width="37" height="37" viewBox="0 0 37 37" fill="none" xmlns="http://www.w3.org/2000/svg">
<g clip-path="url(#clip0_21_941)">
<path d="M18.2791 0.272705C8.33849 0.272705 0.279083 8.38077 0.279083 18.3814C0.279083 27.4185 6.86054 34.909 15.4672 36.2727V23.6171H10.8947V18.3814H15.4672V14.3916C15.4672 9.84953 18.1549 7.34485 22.2647 7.34485C24.2341 7.34485 26.2971 7.698 26.2971 7.698V12.1514H24.0217C21.7894 12.1514 21.091 13.5495 21.091 14.982V18.3777H26.0793L25.2818 23.6135H21.091V36.2691C29.6976 34.9126 36.2791 27.4203 36.2791 18.3814C36.2791 8.38077 28.2197 0.272705 18.2791 0.272705Z" fill="#FAFAFA"/>
</g>
<defs>
<clipPath id="clip0_21_941">
<rect width="37" height="37" fill="white"/>
</clipPath>
</defs>
</svg>
