<svg width="35" height="28" viewBox="0 0 35 28" fill="none" xmlns="http://www.w3.org/2000/svg">
<g clip-path="url(#clip0_21_943)">
<path d="M31.5 0H3.5C2.57174 0 1.6815 0.368749 1.02513 1.02513C0.368749 1.6815 0 2.57174 0 3.5V24.5C0 25.4283 0.368749 26.3185 1.02513 26.9749C1.6815 27.6313 2.57174 28 3.5 28H31.5C32.4283 28 33.3185 27.6313 33.9749 26.9749C34.6312 26.3185 35 25.4283 35 24.5V3.5C35 2.57174 34.6312 1.6815 33.9749 1.02513C33.3185 0.368749 32.4283 0 31.5 0ZM31.5 8.225L17.5 17.5595L3.5 8.225V4.01975L17.5 13.3525L31.5 4.01975V8.225Z" fill="#FAFAFA"/>
</g>
<defs>
<clipPath id="clip0_21_943">
<rect width="35" height="28" fill="white"/>
</clipPath>
</defs>
</svg>
