<svg width="14" height="15" viewBox="0 0 14 15" fill="none" xmlns="http://www.w3.org/2000/svg">
<path d="M3.38889 6.75H4.83333V8.25H3.38889V6.75ZM3.38889 9.75H4.83333V11.25H3.38889V9.75ZM6.27778 6.75H7.72222V8.25H6.27778V6.75ZM6.27778 9.75H7.72222V11.25H6.27778V9.75ZM9.16667 6.75H10.6111V8.25H9.16667V6.75ZM9.16667 9.75H10.6111V11.25H9.16667V9.75Z" fill="#666666"/>
<path d="M1.94444 15H12.0556C12.8522 15 13.5 14.3273 13.5 13.5V3C13.5 2.17275 12.8522 1.5 12.0556 1.5H10.6111V0H9.16667V1.5H4.83333V0H3.38889V1.5H1.94444C1.14783 1.5 0.5 2.17275 0.5 3V13.5C0.5 14.3273 1.14783 15 1.94444 15ZM12.0556 4.5L12.0563 13.5H1.94444V4.5H12.0556Z" fill="#666666"/>
</svg>
