<svg width="36" height="26" viewBox="0 0 36 26" fill="none" xmlns="http://www.w3.org/2000/svg">
<path d="M31.5032 0H3.50323C1.57298 0 0.00323486 1.62581 0.00323486 3.625L0 21.875C0 23.8742 1.56975 25.5 3.5 25.5H31.5C33.4303 25.5 35 23.8742 35 21.875L35.0032 3.625C35.0032 1.62581 33.4335 0 31.5032 0ZM31.5032 2V2.99819L17.5032 14L3.50323 3V2H31.5032ZM1.9965 23.5L1.99973 4.5L16.4287 15.4128C16.7352 15.6621 17.1136 15.7976 17.5032 15.7976C17.8929 15.7976 18.2713 15.6621 18.5777 15.4128L33.0032 4.5L33 23.5H1.9965Z" fill="#666666"/>
</svg>
