<svg width="145" height="145" viewBox="0 0 145 145" fill="none" xmlns="http://www.w3.org/2000/svg">
<rect x="2.5" y="2.5" width="140" height="140" rx="70" stroke="#F18500" stroke-width="5"/>
<path d="M20.5 98H62.5C60.6391 105.444 59.4448 120 72.5 120C85.5552 120 83.4857 105.444 82.3405 98H125.285" stroke="#F18500" stroke-width="4" stroke-linecap="round" stroke-linejoin="round"/>
<path d="M78.5 109C78.5 112.59 75.5899 115.5 72 115.5C68.4101 115.5 65.5 112.59 65.5 109C65.5 107.17 66.3233 84.4107 72 64.5C77.4576 45.358 89.2742 29 89.5 29C89.7258 29 81.7571 46.6575 78.5 66.5C75.3355 85.7782 78.5 107.231 78.5 109Z" fill="#F18500"/>
</svg>
