<svg width="141" height="141" viewBox="0 0 141 141" fill="none" xmlns="http://www.w3.org/2000/svg">
<circle cx="70.5" cy="70.5" r="67.5" stroke="#F18500" stroke-width="5"/>
<rect x="39.5694" y="37.5" width="74.6111" height="48.2778" rx="13" fill="#FAFAFA" stroke="#F18500" stroke-width="5"/>
<rect x="27.5" y="56.1528" width="74.6111" height="48.2778" rx="13" fill="#FAFAFA" stroke="#F18500" stroke-width="5"/>
<circle cx="43.4097" cy="72.0626" r="7.13194" fill="#F18500"/>
<path d="M67.8661 84.3304C69.0031 82.2453 71.9969 82.2453 73.1339 84.3304L82.8035 102.064C83.8936 104.063 82.4466 106.5 80.1696 106.5H60.8304C58.5534 106.5 57.1064 104.063 58.1965 102.064L67.8661 84.3304Z" fill="#F18500"/>
<path d="M81.8796 88.2007C83.0237 86.1483 85.9763 86.1483 87.1204 88.2007L94.1378 100.789C95.2525 102.789 93.8068 105.25 91.5174 105.25H77.4826C75.1932 105.25 73.7475 102.789 74.8622 100.789L81.8796 88.2007Z" fill="#F18500"/>
</svg>
