<svg width="51" height="50" viewBox="0 0 51 50" fill="none" xmlns="http://www.w3.org/2000/svg">
<path d="M25.5 4.16675C23.4398 4.16675 21.4258 4.77767 19.7128 5.92227C17.9998 7.06687 16.6647 8.69373 15.8763 10.5971C15.0878 12.5005 14.8816 14.595 15.2835 16.6156C15.6854 18.6362 16.6775 20.4923 18.1343 21.9491C19.5911 23.4059 21.4472 24.398 23.4678 24.7999C25.4884 25.2019 27.5829 24.9956 29.4863 24.2072C31.3897 23.4187 33.0165 22.0836 34.1611 20.3706C35.3057 18.6576 35.9167 16.6436 35.9167 14.5834C35.9167 11.8207 34.8192 9.17122 32.8657 7.21772C30.9122 5.26422 28.2627 4.16675 25.5 4.16675ZM25.5 20.8334C24.2639 20.8334 23.0555 20.4669 22.0277 19.7801C20.9999 19.0933 20.1988 18.1172 19.7258 16.9752C19.2527 15.8331 19.1289 14.5765 19.3701 13.3641C19.6112 12.1517 20.2065 11.0381 21.0806 10.164C21.9547 9.28992 23.0683 8.69466 24.2807 8.45351C25.4931 8.21235 26.7497 8.33612 27.8918 8.80917C29.0338 9.28222 30.0099 10.0833 30.6967 11.1111C31.3834 12.1389 31.75 13.3473 31.75 14.5834C31.75 16.241 31.0915 17.8307 29.9194 19.0028C28.7473 20.1749 27.1576 20.8334 25.5 20.8334ZM44.25 43.7501V41.6667C44.25 37.799 42.7135 34.0897 39.9786 31.3548C37.2437 28.6199 33.5344 26.3333 29.6667 26.3333H21.3333C17.4656 26.3333 13.7563 28.6199 11.0214 31.3548C8.28645 34.0897 6.75 37.799 6.75 41.6667V43.7501H10.9167V41.6667C10.9167 38.9041 12.0141 36.2546 13.9676 34.3011C15.9211 32.3475 18.5707 30.5 21.3333 30.5H29.6667C32.4293 30.5 35.0789 32.3475 37.0324 34.3011C38.9859 36.2546 40.0833 38.9041 40.0833 41.6667V43.7501H44.25Z" fill="#FF9235"/>
</svg>
