<svg width="140" height="141" viewBox="0 0 140 141" fill="none" xmlns="http://www.w3.org/2000/svg">
<rect x="29.5" y="36" width="81" height="68" rx="17.5" stroke="#F18500" stroke-width="5"/>
<line x1="31" y1="55" x2="109" y2="55" stroke="#F18500" stroke-width="5"/>
<rect x="44" y="28" width="8" height="16" rx="4" fill="#F18500"/>
<rect x="87" y="28" width="8" height="16" rx="4" fill="#F18500"/>
<path d="M41.0627 73.1364H44.8056L47.2204 78.1591H47.317L49.7318 73.1364H53.4747L48.9349 81.6122V85.5H45.6025V81.6122L41.0627 73.1364ZM54.5688 85.5V73.1364H63.4794V75.8409H57.9254V77.9659H63.0206V80.6705H57.9254V82.7955H63.4552V85.5H54.5688ZM68.3557 85.5H64.7335L68.8145 73.1364H73.4026L77.4835 85.5H73.8614L71.1568 76.5412H71.0602L68.3557 85.5ZM67.6796 80.6222H74.4892V83.1335H67.6796V80.6222ZM78.6743 85.5V73.1364H84.011C84.9286 73.1364 85.7315 73.3034 86.4197 73.6374C87.1079 73.9715 87.6432 74.4524 88.0255 75.0803C88.4079 75.7081 88.599 76.4607 88.599 77.3381C88.599 78.2235 88.4018 78.9701 88.0074 79.5778C87.617 80.1855 87.0677 80.6443 86.3593 80.9542C85.655 81.2641 84.832 81.419 83.8902 81.419H80.7027V78.8111H83.2141C83.6085 78.8111 83.9446 78.7628 84.2223 78.6662C84.504 78.5656 84.7193 78.4066 84.8682 78.1893C85.0211 77.9719 85.0976 77.6882 85.0976 77.3381C85.0976 76.9839 85.0211 76.6961 84.8682 76.4748C84.7193 76.2494 84.504 76.0844 84.2223 75.9798C83.9446 75.8711 83.6085 75.8168 83.2141 75.8168H82.0309V85.5H78.6743ZM85.9186 79.8253L89.0095 85.5H85.3632L82.3448 79.8253H85.9186ZM98.5539 79.2457H95.4872C95.4711 79.0566 95.4047 78.8936 95.288 78.7567C95.1712 78.6199 95.0203 78.5153 94.8352 78.4428C94.6541 78.3664 94.4528 78.3281 94.2315 78.3281C93.9457 78.3281 93.7002 78.3804 93.495 78.4851C93.2897 78.5897 93.1891 78.7386 93.1931 78.9318C93.1891 79.0687 93.2475 79.1954 93.3682 79.3121C93.493 79.4289 93.7324 79.5194 94.0866 79.5838L95.9701 79.9219C96.9199 80.0949 97.6263 80.3867 98.0891 80.7972C98.5559 81.2037 98.7914 81.7491 98.7954 82.4332C98.7914 83.0933 98.5942 83.6668 98.2038 84.1538C97.8174 84.6367 97.2882 85.011 96.6161 85.2766C95.948 85.5382 95.1853 85.669 94.3281 85.669C92.9114 85.669 91.8026 85.3793 91.0017 84.7997C90.2049 84.2202 89.7601 83.4555 89.6676 82.5057H92.9758C93.0201 82.7995 93.165 83.0269 93.4105 83.1879C93.66 83.3448 93.9739 83.4233 94.3522 83.4233C94.6581 83.4233 94.9096 83.371 95.1068 83.2663C95.3081 83.1617 95.4107 83.0128 95.4147 82.8196C95.4107 82.6425 95.3222 82.5017 95.1491 82.397C94.9801 82.2924 94.7144 82.2079 94.3522 82.1435L92.7102 81.8537C91.7644 81.6887 91.0561 81.3748 90.5852 80.9119C90.1143 80.4491 89.8809 79.8535 89.8849 79.125C89.8809 78.4811 90.0499 77.9357 90.392 77.489C90.7381 77.0382 91.2311 76.6961 91.871 76.4627C92.515 76.2253 93.2777 76.1065 94.159 76.1065C95.4992 76.1065 96.5557 76.3842 97.3284 76.9396C98.1052 77.495 98.5137 78.2637 98.5539 79.2457Z" fill="#F18500"/>
<circle cx="70" cy="70.5" r="67.5" stroke="#F18500" stroke-width="5"/>
</svg>
